<?xml version="1.0" encoding="utf-8"?>
<!-- Svg Vector Icons : http://www.onlinewebfonts.com/icon -->
<!DOCTYPE svg PUBLIC "-//W3C//DTD SVG 1.1//EN" "http://www.w3.org/Graphics/SVG/1.1/DTD/svg11.dtd">
<svg version="1.1" xmlns="http://www.w3.org/2000/svg" xmlns:xlink="http://www.w3.org/1999/xlink" x="0px" y="0px" viewBox="0 0 1000 1000" enable-background="new 0 0 1000 1000" xml:space="preserve">
<metadata> Svg Vector Icons : http://www.onlinewebfonts.com/icon </metadata>
<g><path d="M914.8,198.1h-178L666.6,108c-3.9-5-9.8-7.9-16.2-7.9H359.8c-6.5,0-12.6,3.1-16.5,8.3l-66,89.7H85.2C43.7,198,10,231.8,10,273.2v551.5c0,41.5,33.7,75.2,75.2,75.2h829.6c41.5,0,75.2-33.7,75.2-75.2V273.2C989.9,231.9,956.3,198.1,914.8,198.1L914.8,198.1L914.8,198.1z M949,824.8c0,18.9-15.3,34.2-34.2,34.2H85.2c-18.9,0-34.2-15.3-34.2-34.2V273.3c0-18.9,15.3-34.2,34.2-34.2h202.5c6.5,0,12.6-3.1,16.5-8.3l66-89.7h270.3l70.2,90.2c3.9,5,9.8,7.9,16.2,7.9h188c18.9,0,34.2,15.3,34.2,34.2L949,824.8L949,824.8z M510.2,321.2c-127.6,0-231.3,103.7-231.3,231.3c0,127.6,103.7,231.3,231.3,231.3c127.6,0,231.3-103.8,231.3-231.4C741.5,425,637.8,321.2,510.2,321.2L510.2,321.2z M510.2,742.9c-105,0-190.3-85.3-190.3-190.3c0-104.9,85.4-190.3,190.3-190.3c104.9,0,190.3,85.3,190.3,190.2C700.6,657.5,615.2,742.9,510.2,742.9L510.2,742.9L510.2,742.9z M797.4,342L797.4,342c0,16.6,13.4,30,30,30c16.6,0,30-13.4,30-30l0,0l0,0c0-16.6-13.4-30-30-30C810.8,312.1,797.4,325.5,797.4,342C797.4,358.6,797.4,342,797.4,342L797.4,342z"/></g>
</svg>